<svg xmlns="http://www.w3.org/2000/svg" width="990" height="180" viewBox="0 0 990 180" fill="none"><script xmlns="" type="text/javascript" id="in-page-script-id" data-name="in_page_channel_RQwEKn"/>
<path d="M316.946 135C306.928 135 298.815 134.533 292.609 133.599C286.491 132.561 281.748 130.484 278.379 127.37C275.009 124.256 272.749 119.844 271.596 114.135C270.532 108.426 270 100.796 270 91.2457V88.7543C270 82.4221 270.222 76.9723 270.665 72.4048C271.108 67.7336 271.951 63.7889 273.192 60.5709C274.433 57.3529 276.118 54.7578 278.246 52.7855C280.462 50.7093 283.299 49.1003 286.757 47.9585C290.215 46.8166 294.426 46.0381 299.391 45.6228C304.356 45.2076 310.208 45 316.946 45H320.271C329.403 45 336.718 45.4152 342.215 46.2457C347.801 46.9723 352.101 48.3737 355.115 50.4498C358.13 52.4221 360.125 55.2249 361.1 58.8581C362.075 62.4914 362.563 67.1107 362.563 72.7163V76.1419H346.604V74.4291C346.604 71.5225 346.338 69.1349 345.806 67.2664C345.363 65.2941 344.21 63.7889 342.348 62.7509C340.575 61.7128 337.915 60.9862 334.369 60.5709C330.822 60.1557 325.946 59.9481 319.739 59.9481H317.478C310.385 59.9481 304.755 60.2076 300.588 60.7266C296.51 61.2457 293.407 62.4914 291.279 64.4637C289.24 66.436 287.91 69.3945 287.289 73.3391C286.757 77.1799 286.491 82.474 286.491 89.2215V90.7785C286.491 97.5259 286.757 102.82 287.289 106.661C287.91 110.502 289.24 113.408 291.279 115.381C293.407 117.249 296.51 118.443 300.588 118.962C304.755 119.481 310.385 119.74 317.478 119.74H319.739C326.034 119.74 330.999 119.585 334.634 119.273C338.358 118.858 341.151 118.08 343.013 116.938C344.964 115.796 346.205 114.239 346.737 112.266C347.269 110.294 347.535 107.647 347.535 104.325V102.924H363.361V106.972C363.361 112.474 362.829 117.042 361.765 120.675C360.701 124.204 358.618 127.059 355.514 129.239C352.411 131.315 348.022 132.82 342.348 133.754C336.762 134.585 329.403 135 320.271 135H316.946Z" fill="#005580"/>
<path d="M423.85 135C413.476 135 405.142 134.533 398.847 133.599C392.641 132.561 387.853 130.536 384.484 127.526C381.115 124.412 378.898 120 377.834 114.291C376.77 108.478 376.238 100.796 376.238 91.2457V88.7543C376.238 79.1003 376.77 71.4187 377.834 65.7093C378.898 59.8962 381.115 55.4844 384.484 52.4741C387.853 49.3599 392.641 47.3356 398.847 46.4014C405.142 45.4671 413.476 45 423.85 45H427.175C437.548 45 445.838 45.4671 452.044 46.4014C458.251 47.3356 463.038 49.3599 466.407 52.4741C469.777 55.4844 471.993 59.8962 473.057 65.7093C474.121 71.4187 474.653 79.1003 474.653 88.7543V91.2457C474.653 100.9 474.121 108.633 473.057 114.446C471.993 120.156 469.777 124.567 466.407 127.682C463.038 130.692 458.251 132.664 452.044 133.599C445.838 134.533 437.548 135 427.175 135H423.85ZM426.51 119.896C431.386 119.896 435.553 119.792 439.011 119.585C442.469 119.377 445.35 118.962 447.655 118.339C450.049 117.612 451.911 116.626 453.241 115.381C454.66 114.031 455.724 112.266 456.433 110.087C457.142 107.907 457.586 105.26 457.763 102.145C458.029 98.9273 458.162 95.0865 458.162 90.6228V89.2215C458.162 82.474 457.852 77.128 457.231 73.1834C456.699 69.2388 455.369 66.2803 453.241 64.308C451.113 62.3356 447.921 61.09 443.666 60.5709C439.499 60.0519 433.78 59.7924 426.51 59.7924H424.382C417.111 59.7924 411.348 60.0519 407.093 60.5709C402.926 61.09 399.778 62.3356 397.65 64.308C395.522 66.2803 394.148 69.2388 393.527 73.1834C392.995 77.128 392.729 82.474 392.729 89.2215V90.6228C392.729 97.3702 392.995 102.664 393.527 106.505C394.148 110.346 395.522 113.304 397.65 115.381C399.778 117.353 402.926 118.599 407.093 119.118C411.348 119.637 417.111 119.896 424.382 119.896H426.51Z" fill="#005580"/>
<path d="M506.025 133.91H489.534V46.09H506.025V133.91Z" fill="#005580"/>
<path d="M618.537 133.91H593.8L539.539 62.4394H539.007V133.91H522.782V46.09H547.918L601.78 117.561H602.312V46.09H618.537V133.91Z" fill="#005580"/>
<path d="M651.745 133.91H635.254V46.09H651.745V133.91Z" fill="#005580"/>
<path d="M764.257 133.91H739.521L685.26 62.4394H684.728V133.91H668.502V46.09H693.638L747.5 117.561H748.032V46.09H764.257V133.91Z" fill="#005580"/>
<path d="M876.73 133.91H851.993L797.732 62.4394H797.2V133.91H780.975V46.09H806.11L859.973 117.561H860.505V46.09H876.73V133.91Z" fill="#005580"/>
<path d="M939.197 135C928.823 135 920.489 134.533 914.194 133.599C907.988 132.561 903.2 130.536 899.831 127.526C896.462 124.412 894.245 120 893.181 114.291C892.117 108.478 891.585 100.796 891.585 91.2457V88.7543C891.585 79.1003 892.117 71.4187 893.181 65.7093C894.245 59.8962 896.462 55.4844 899.831 52.4741C903.2 49.3599 907.988 47.3356 914.194 46.4014C920.489 45.4671 928.823 45 939.197 45H942.522C952.895 45 961.185 45.4671 967.391 46.4014C973.598 47.3356 978.385 49.3599 981.754 52.4741C985.124 55.4844 987.34 59.8962 988.404 65.7093C989.468 71.4187 990 79.1003 990 88.7543V91.2457C990 100.9 989.468 108.633 988.404 114.446C987.34 120.156 985.124 124.567 981.754 127.682C978.385 130.692 973.598 132.664 967.391 133.599C961.185 134.533 952.895 135 942.522 135H939.197ZM941.857 119.896C946.733 119.896 950.9 119.792 954.358 119.585C957.816 119.377 960.697 118.962 963.003 118.339C965.396 117.612 967.258 116.626 968.588 115.381C970.007 114.031 971.071 112.266 971.78 110.087C972.489 107.907 972.933 105.26 973.11 102.145C973.376 98.9273 973.509 95.0865 973.509 90.6228V89.2215C973.509 82.474 973.199 77.128 972.578 73.1834C972.046 69.2388 970.716 66.2803 968.588 64.308C966.46 62.3356 963.269 61.09 959.013 60.5709C954.846 60.0519 949.127 59.7924 941.857 59.7924H939.729C932.459 59.7924 926.696 60.0519 922.44 60.5709C918.273 61.09 915.125 62.3356 912.997 64.308C910.869 66.2803 909.495 69.2388 908.874 73.1834C908.342 77.128 908.076 82.474 908.076 89.2215V90.6228C908.076 97.3702 908.342 102.664 908.874 106.505C909.495 110.346 910.869 113.304 912.997 115.381C915.125 117.353 918.273 118.599 922.44 119.118C926.696 119.637 932.459 119.896 939.729 119.896H941.857Z" fill="#005580"/>
<path fill-rule="evenodd" clipt-4p-rule="evenodd" d="M175.823 56.4244C177.021 55.5322 178.01 54.4032 178.725 53.1122C179.441 51.8211 179.866 50.3972 179.973 48.9346C180.08 47.472 179.867 46.004 179.347 44.6274C178.827 43.2509 178.012 41.9972 176.957 40.9492L135.759 0.190889C135.609 0.0723032 135.423 0.00528143 135.23 0.000299293C135.036 -0.00468284 134.847 0.0526554 134.691 0.163352C134.535 0.274049 134.421 0.431867 134.367 0.612139C134.313 0.792412 134.322 0.98498 134.393 1.15975L150.388 33.0126C150.713 33.6879 150.889 34.4222 150.902 35.1677C150.916 35.9131 150.768 36.653 150.467 37.3392C150.167 38.0253 149.722 38.6423 149.16 39.1499C148.598 39.6576 147.932 40.0446 147.206 40.2856L100.762 54.8848C99.6244 55.2258 98.5955 55.8438 97.773 56.6801C96.9506 57.5163 96.3619 58.5431 96.063 59.6627L92.8666 72.7224C92.6295 73.667 92.0783 74.5093 91.2986 75.1188C90.5188 75.7282 89.554 76.0708 88.5535 76.0935C87.5531 76.1162 86.5728 75.8177 85.7647 75.2442C84.9565 74.6707 84.3655 73.8543 84.0833 72.9215C82.5534 67.7985 80.9825 62.6224 79.9854 59.3575C79.6697 58.3178 79.1036 57.3661 78.3339 56.5814C77.5643 55.7966 76.6132 55.2014 75.5596 54.845L32.3807 40.2458C31.6745 40.0029 31.0284 39.6194 30.4835 39.1198C29.9387 38.6203 29.5071 38.0158 29.2165 37.3449C28.926 36.6741 28.7827 35.9517 28.796 35.2239C28.8092 34.4962 28.9787 33.7792 29.2936 33.1187L45.5078 1.26592C45.5984 1.08605 45.6207 0.880865 45.5707 0.686593C45.5207 0.492322 45.4017 0.321456 45.2346 0.204161C45.0644 0.088213 44.8576 0.0340024 44.6504 0.0509801C44.4432 0.0679579 44.2487 0.155047 44.1009 0.297066L3.01197 41.0819C1.97104 42.1242 1.16717 43.3674 0.65245 44.7309C0.137733 46.0944 -0.0763357 47.5478 0.0241203 48.9968C0.124576 50.4459 0.537315 51.8582 1.23558 53.1423C1.93385 54.4265 2.90205 55.5537 4.07744 56.4509L57.8973 97.8463C60.0198 99.465 61.737 101.53 62.92 103.886C64.103 106.242 64.7209 108.829 64.7273 111.45V115.193L40.0985 95.9749C38.8745 95.0155 37.8862 93.8027 37.2056 92.4252C36.525 91.0476 36.1694 89.5398 36.1645 88.0117V81.1767L30.5093 76.8234V94.2629C30.5126 97.332 31.3414 100.347 32.9134 103.009C39.5931 114.197 58.0613 145.254 63.252 153.894C64.1541 155.421 64.8388 157.059 65.2873 158.765C66.1889 162.202 67.8281 168.44 69.0984 173.258C69.6073 175.185 70.7611 176.893 72.3783 178.114C73.9954 179.334 75.9843 179.998 78.032 180H100.639C102.778 180.001 104.851 179.278 106.501 177.956C108.151 176.633 109.276 174.794 109.682 172.753L112.414 159.176C112.809 157.199 113.523 155.295 114.531 153.536L143.476 102.85C144.964 100.257 145.745 97.3375 145.744 94.369V78.7612L140.785 82.4375V88.0516C140.792 89.5722 140.451 91.0753 139.788 92.4524C139.124 93.8295 138.154 95.0462 136.947 96.0148L113.015 115.193V111.623C113.008 108.956 113.637 106.325 114.853 103.935C116.069 101.544 117.838 99.4604 120.022 97.8463C133.054 88.171 161.057 67.4003 175.823 56.4244Z" fill="#FF8000"/>
</svg>